<svg width="161" height="164" viewBox="0 0 161 164" fill="none" xmlns="http://www.w3.org/2000/svg">
<path d="M63.4268 68.7699C56.1642 77.5193 57.619 90.2669 66.3365 97.5561C75.054 104.845 87.755 103.385 95.0177 94.6358C102.28 85.8864 100.825 73.1388 92.108 65.8495C83.3905 58.9195 70.32 60.0204 63.4268 68.7699Z" fill="#253E5C"/>
<path d="M113.289 150.143C95.054 168.026 65.8084 168.026 47.5729 150.143L24.7154 127.728L0 103.838L21.2862 81.9265L46.0819 105.897L80.4312 139.582L114.7 105.977L139.714 81.7778L161 103.7L136.067 127.82L113.289 150.154V150.143Z" fill="#253E5C"/>
<path d="M113.343 13.4277C95.0967 -4.47591 65.8344 -4.47591 47.5885 13.4277L24.718 35.8674L0 59.7963L21.2984 81.732L46.1082 57.7344L80.477 24.0119L114.766 57.6542L139.702 81.7778L161 59.8306L136.144 35.7873L113.354 13.4277H113.343Z" fill="#253E5C"/>
</svg>
