<svg width="109" height="121" viewBox="0 0 109 121" fill="none" xmlns="http://www.w3.org/2000/svg">
<path d="M43.5752 57.0387C38.6903 62.9058 39.6688 71.454 45.5322 76.3419C51.3956 81.2299 59.9382 80.2507 64.8231 74.3836C69.7079 68.5165 68.7294 59.9684 62.866 55.0804C57.0027 50.4334 48.2115 51.1716 43.5752 57.0387Z" fill="currentColor"/>
<path d="M76.7438 111.88C64.3958 124.026 44.5924 124.026 32.2444 111.88L16.7666 96.6567L0.0307617 80.4309L14.4446 65.5494L31.2348 81.8297L54.4941 104.707L77.6991 81.884L94.6368 65.4484L109.051 80.3376L92.1672 96.7189L76.7438 111.888V111.88Z" fill="currentColor"/>
<path d="M76.7053 19.2421C64.3573 7.09599 44.5539 7.09599 32.2058 19.2421L16.7281 34.4655L0 50.6991L14.4138 65.5806L31.204 49.3003L54.4633 26.4225L77.6683 49.2459L94.544 65.6117L108.958 50.7224L92.1365 34.4111L76.7131 19.2421H76.7053Z" fill="currentColor"/>
</svg>
