<svg width="678" height="121" viewBox="0 0 678 121" fill="none" xmlns="http://www.w3.org/2000/svg">
<path d="M43.5752 57.0387C38.6903 62.9058 39.6688 71.454 45.5322 76.3419C51.3956 81.2299 59.9382 80.2507 64.8231 74.3836C69.7079 68.5165 68.7294 59.9684 62.866 55.0804C57.0027 50.4334 48.2115 51.1716 43.5752 57.0387Z" fill="#3F5570"/>
<path d="M76.7438 111.88C64.3958 124.026 44.5924 124.026 32.2444 111.88L16.7666 96.6567L0.0307617 80.4309L14.4446 65.5494L31.2348 81.8297L54.4941 104.707L77.6991 81.884L94.6368 65.4484L109.051 80.3376L92.1672 96.7189L76.7438 111.888V111.88Z" fill="#3F5570"/>
<path d="M76.7053 19.2421C64.3573 7.09599 44.5539 7.09599 32.2058 19.2421L16.7281 34.4655L0 50.6991L14.4138 65.5806L31.204 49.3003L54.4633 26.4225L77.6683 49.2459L94.544 65.6117L108.958 50.7224L92.1365 34.4111L76.7131 19.2421H76.7053Z" fill="#3F5570"/>
<path d="M647.359 104.075C640.202 104.075 634.039 102.455 628.872 99.2129C623.736 95.9391 619.788 91.4295 617.028 85.6843C614.268 79.9391 612.888 73.3593 612.888 65.9451C612.888 58.4345 614.3 51.8066 617.124 46.0614C619.949 40.2841 623.929 35.7745 629.064 32.5328C634.2 29.2911 640.25 27.6702 647.215 27.6702C652.832 27.6702 657.839 28.7134 662.236 30.7996C666.633 32.8538 670.18 35.7424 672.876 39.4656C675.604 43.1888 677.225 47.5378 677.738 52.5128H663.728C662.958 49.0464 661.193 46.0614 658.432 43.5579C655.704 41.0544 652.045 39.8026 647.455 39.8026C643.443 39.8026 639.929 40.8618 636.912 42.9802C633.927 45.0664 631.6 48.0514 629.931 51.935C628.262 55.7866 627.427 60.3443 627.427 65.6081C627.427 71.0002 628.246 75.6542 629.883 79.57C631.52 83.4857 633.831 86.5188 636.815 88.6693C639.833 90.8197 643.379 91.8949 647.455 91.8949C650.184 91.8949 652.655 91.3974 654.87 90.4025C657.116 89.3754 658.994 87.915 660.503 86.0213C662.043 84.1276 663.118 81.8488 663.728 79.1848H677.738C677.225 83.9671 675.668 88.236 673.068 91.9912C670.468 95.7465 666.986 98.6994 662.621 100.85C658.288 103 653.201 104.075 647.359 104.075Z" fill="#3F5570"/>
<path d="M582.449 102.583V28.633H596.844V102.583H582.449Z" fill="#3F5570"/>
<path d="M219.291 102.548V28.5978H233.686V102.548H219.291Z" fill="#3F5570"/>
<path d="M462.629 102.583V28.6331H476.446V40.6692H477.361C478.902 36.593 481.421 33.4155 484.92 31.1366C488.418 28.8257 492.607 27.6702 497.485 27.6702C502.428 27.6702 506.569 28.8257 509.907 31.1366C513.277 33.4476 515.764 36.6251 517.369 40.6692H518.139C519.905 36.7214 522.713 33.5759 526.565 31.2329C530.416 28.8578 535.006 27.6702 540.334 27.6702C547.042 27.6702 552.515 29.7725 556.751 33.9771C561.02 38.1818 563.155 44.5208 563.155 52.9942V102.583H548.759V54.3423C548.759 49.3352 547.395 45.7083 544.667 43.4616C541.939 41.2149 538.681 40.0915 534.894 40.0915C530.208 40.0915 526.565 41.5358 523.965 44.4245C521.365 47.2811 520.065 50.9561 520.065 55.4496V102.583H505.718V53.4275C505.718 49.4155 504.466 46.1898 501.963 43.7505C499.459 41.3112 496.202 40.0915 492.19 40.0915C489.461 40.0915 486.942 40.8137 484.631 42.258C482.352 43.6702 480.507 45.6442 479.094 48.1798C477.714 50.7154 477.024 53.6522 477.024 56.9902V102.583H462.629Z" fill="#3F5570"/>
<path d="M414.93 104.075C407.644 104.075 401.369 102.519 396.105 99.4055C390.874 96.26 386.83 91.8468 383.973 86.1657C381.149 80.4526 379.736 73.7605 379.736 66.0895C379.736 58.5148 381.149 51.8387 383.973 46.0614C386.83 40.2841 390.81 35.7745 395.913 32.5328C401.048 29.2911 407.05 27.6702 413.919 27.6702C418.091 27.6702 422.136 28.3603 426.051 29.7404C429.967 31.1206 433.482 33.2871 436.595 36.2399C439.708 39.1928 442.164 43.0283 443.961 47.7465C445.758 52.4325 446.657 58.1296 446.657 64.8378V69.9411H387.873V59.1567H432.551C432.551 55.3693 431.78 52.0153 430.24 49.0945C428.699 46.1416 426.533 43.8147 423.74 42.1136C420.98 40.4125 417.738 39.5619 414.015 39.5619C409.971 39.5619 406.44 40.5569 403.423 42.5469C400.438 44.5047 398.128 47.0724 396.491 50.25C394.886 53.3954 394.083 56.8137 394.083 60.5048V68.93C394.083 73.8729 394.95 78.0775 396.683 81.5439C398.448 85.0103 400.904 87.6582 404.049 89.4877C407.195 91.2851 410.87 92.1838 415.074 92.1838C417.803 92.1838 420.29 91.7987 422.537 91.0283C424.783 90.2259 426.725 89.0384 428.362 87.4656C429.999 85.8929 431.251 83.9511 432.117 81.6402L445.742 84.0955C444.651 88.1076 442.693 91.6221 439.869 94.6392C437.076 97.6241 433.562 99.9511 429.325 101.62C425.12 103.257 420.322 104.075 414.93 104.075Z" fill="#3F5570"/>
<path d="M367.929 28.6334V40.188H327.536V28.6334H367.929ZM338.368 10.9162H352.763V80.8701C352.763 83.6625 353.181 85.7648 354.015 87.177C354.85 88.5572 355.925 89.504 357.241 90.0175C358.589 90.499 360.049 90.7397 361.622 90.7397C362.777 90.7397 363.788 90.6595 364.655 90.499C365.522 90.3385 366.196 90.2101 366.677 90.1138L369.277 102.006C368.442 102.326 367.255 102.647 365.714 102.968C364.174 103.321 362.248 103.514 359.937 103.546C356.149 103.61 352.619 102.936 349.345 101.524C346.071 100.112 343.423 97.9293 341.401 94.9764C339.379 92.0236 338.368 88.3164 338.368 83.855V10.9162Z" fill="#3F5570"/>
<path d="M266.778 58.6753V102.583H252.382V28.6331H266.2V40.6692H267.115C268.816 36.7535 271.48 33.608 275.107 31.2329C278.765 28.8578 283.371 27.6702 288.924 27.6702C293.963 27.6702 298.376 28.7294 302.164 30.8478C305.951 32.934 308.888 36.0474 310.974 40.1878C313.06 44.3282 314.104 49.4476 314.104 55.5459V102.583H299.708V57.2791C299.708 51.919 298.312 47.7304 295.52 44.7134C292.727 41.6642 288.892 40.1396 284.013 40.1396C280.675 40.1396 277.706 40.8618 275.107 42.3061C272.539 43.7505 270.501 45.8688 268.992 48.6612C267.516 51.4215 266.778 54.7595 266.778 58.6753Z" fill="#3F5570"/>
</svg>
